<?xml version="1.0" encoding="UTF-8" standalone="no"?>
<!-- Generator: Adobe Illustrator 21.1.0, SVG Export Plug-In . SVG Version: 6.00 Build 0)  -->

<svg
   xmlns:dc="http://purl.org/dc/elements/1.1/"
   xmlns:cc="http://creativecommons.org/ns#"
   xmlns:rdf="http://www.w3.org/1999/02/22-rdf-syntax-ns#"
   xmlns:svg="http://www.w3.org/2000/svg"
   xmlns="http://www.w3.org/2000/svg"
   xmlns:sodipodi="http://sodipodi.sourceforge.net/DTD/sodipodi-0.dtd"
   xmlns:inkscape="http://www.inkscape.org/namespaces/inkscape"
   version="1.1"
   id="Layer_1"
   x="0px"
   y="0px"
   viewBox="0 0 268 228.7"
   style="enable-background:new 0 0 268 228.7;"
   xml:space="preserve"
   sodipodi:docname="logo.svg"
   inkscape:version="0.92.1 r15371"><metadata
   id="metadata84"><rdf:RDF><cc:Work
       rdf:about=""><dc:format>image/svg+xml</dc:format><dc:type
         rdf:resource="http://purl.org/dc/dcmitype/StillImage" /></cc:Work></rdf:RDF></metadata><defs
   id="defs82" /><sodipodi:namedview
   pagecolor="#ffffff"
   bordercolor="#666666"
   borderopacity="1"
   objecttolerance="10"
   gridtolerance="10"
   guidetolerance="10"
   inkscape:pageopacity="0"
   inkscape:pageshadow="2"
   inkscape:window-width="1131"
   inkscape:window-height="804"
   id="namedview80"
   showgrid="false"
   inkscape:zoom="4.1276782"
   inkscape:cx="134"
   inkscape:cy="114.35"
   inkscape:window-x="443"
   inkscape:window-y="53"
   inkscape:window-maximized="0"
   inkscape:current-layer="Layer_1"><inkscape:grid
     type="xygrid"
     id="grid3756" /></sodipodi:namedview>
<style
   type="text/css"
   id="style27">
	.st0{fill:#FFFFFF;}
</style>
<g
   id="g67"
   transform="matrix(0.74926889,0,0,0.74943314,33.100021,30.522165)">
	<path
   class="st0"
   d="m 155.2,12.1 c -17.4,0 -33.8,4.3 -48.2,12 11.5,-4.7 24.1,-7.3 37.3,-7.3 54.4,0 98.5,44.1 98.5,98.5 0,54.4 -44.1,98.5 -98.5,98.5 -13.2,0 -25.8,-2.6 -37.3,-7.3 14.4,7.6 30.8,12 48.2,12 57,0 103.2,-46.2 103.2,-103.2 C 258.3,58.3 212.1,12.1 155.2,12.1 Z"
   id="path29"
   inkscape:connector-curvature="0"
   style="fill:#ffffff" />
	<g
   id="g65">
		<g
   id="g41">
			<path
   class="st0"
   d="m 12.5,163.4 h 2.4 v 9.1 h 5.4 v 2.1 h -7.9 v -11.2 z"
   id="path31"
   inkscape:connector-curvature="0"
   style="fill:#ffffff" />
			<path
   class="st0"
   d="M 30.7,163.4 H 39 v 2.1 h -5.9 v 2.4 h 5.4 v 1.9 h -5.4 v 2.7 h 6 v 2.1 h -8.4 z"
   id="path33"
   inkscape:connector-curvature="0"
   style="fill:#ffffff" />
			<path
   class="st0"
   d="m 49.8,163.4 h 8.3 v 2.1 h -5.9 v 2.4 h 5.4 v 1.9 h -5.4 v 2.7 h 6 v 2.1 h -8.4 z"
   id="path35"
   inkscape:connector-curvature="0"
   style="fill:#ffffff" />
			<path
   class="st0"
   d="m 68.9,163.4 h 4.8 c 2.9,0 5,1.8 5,5.5 0,3.2 -1.7,5.6 -5,5.6 h -4.8 z m 2.5,9 h 2.2 c 1.4,0 2.8,-0.9 2.8,-3.3 0,-2.2 -0.8,-3.7 -3.2,-3.7 h -1.7 v 7 z"
   id="path37"
   inkscape:connector-curvature="0"
   style="fill:#ffffff" />
			<path
   class="st0"
   d="m 91.1,170.8 c 0,1.5 1.2,2.1 2.5,2.1 0.9,0 2.2,-0.2 2.2,-1.4 0,-1.2 -1.7,-1.4 -3.3,-1.8 -1.7,-0.4 -3.3,-1.1 -3.3,-3.2 0,-2.3 2.1,-3.4 4.2,-3.4 2.3,0 4.5,1 4.5,3.6 h -2.4 c -0.1,-1.3 -1,-1.7 -2.2,-1.7 -0.8,0 -1.7,0.3 -1.7,1.3 0,0.9 0.5,1 3.3,1.7 0.8,0.2 3.3,0.7 3.3,3.2 0,2 -1.6,3.6 -4.6,3.6 -2.5,0 -4.8,-1.2 -4.7,-4 z"
   id="path39"
   inkscape:connector-curvature="0"
   style="fill:#ffffff" />
		</g>
		<g
   id="g63">
			<path
   class="st0"
   d="M 21.5,56.8 V 91.2 H 47.8 V 99 H 12.2 V 56.8 Z"
   id="path43"
   inkscape:connector-curvature="0"
   style="fill:#ffffff" />
			<path
   class="st0"
   d="M 65.2,56.8 V 99 H 56 V 56.8 Z"
   id="path45"
   inkscape:connector-curvature="0"
   style="fill:#ffffff" />
			<path
   class="st0"
   d="m 98.4,98.6 c -2,0.8 -4,1.3 -6.1,1.3 -3.2,0 -6.1,-0.6 -8.7,-1.7 C 81,97.1 78.8,95.5 77.1,93.6 75.3,91.6 74,89.3 73,86.7 72.1,84 71.6,81.2 71.6,78.1 71.6,75 72.1,72 73,69.3 c 0.9,-2.7 2.3,-5 4.1,-7.1 1.8,-2.1 3.9,-3.6 6.5,-4.7 2.6,-1.1 5.5,-1.7 8.7,-1.7 2.2,0 4.3,0.3 6.3,1 2,0.6 3.9,1.6 5.5,2.9 1.6,1.3 3,2.8 4,4.7 1.1,1.9 1.7,4 1.9,6.4 h -8.9 c -0.6,-2.4 -1.6,-4.1 -3.2,-5.3 -1.6,-1.2 -3.5,-1.8 -5.7,-1.8 -2.1,0 -3.9,0.4 -5.3,1.2 -1.5,0.8 -2.6,1.9 -3.5,3.2 -0.9,1.4 -1.6,2.9 -2,4.6 -0.4,1.7 -0.6,3.5 -0.6,5.4 0,1.8 0.2,3.5 0.6,5.2 0.4,1.7 1.1,3.2 2,4.5 0.9,1.3 2.1,2.4 3.5,3.2 1.5,0.8 3.2,1.2 5.3,1.2 3.1,0 5.4,-0.8 7.1,-2.3 1.7,-1.6 2.6,-3.8 2.9,-6.8 H 93 v -6.9 h 17.7 V 99 h -5.9 l -0.9,-4.8 c -1.7,2.1 -3.5,3.6 -5.5,4.4 z"
   id="path47"
   inkscape:connector-curvature="0"
   style="fill:#ffffff" />
			<path
   class="st0"
   d="M 127.5,56.8 V 73 h 17.1 V 56.8 h 9.3 V 99 h -9.3 V 80.8 H 127.5 V 99 h -9.3 V 56.8 Z"
   id="path49"
   inkscape:connector-curvature="0"
   style="fill:#ffffff" />
			<path
   class="st0"
   d="m 158.6,64.6 v -7.8 h 34.5 v 7.8 H 180.5 V 99 h -9.3 V 64.6 Z"
   id="path51"
   inkscape:connector-curvature="0"
   style="fill:#ffffff" />
			<path
   class="st0"
   d="M 21.4,111.7 39,140 h 0.1 v -28.3 h 8.7 v 42.2 H 38.5 L 21,125.7 h -0.1 v 28.2 h -8.7 v -42.2 z"
   id="path53"
   inkscape:connector-curvature="0"
   style="fill:#ffffff" />
			<path
   class="st0"
   d="m 65.2,111.7 v 42.2 H 56 v -42.2 z"
   id="path55"
   inkscape:connector-curvature="0"
   style="fill:#ffffff" />
			<path
   class="st0"
   d="m 98.4,153.6 c -2,0.8 -4,1.3 -6.1,1.3 -3.2,0 -6.1,-0.6 -8.7,-1.7 -2.6,-1.1 -4.8,-2.7 -6.5,-4.6 -1.8,-2 -3.1,-4.3 -4.1,-6.9 -0.9,-2.7 -1.4,-5.5 -1.4,-8.6 0,-3.1 0.5,-6.1 1.4,-8.8 0.9,-2.7 2.3,-5 4.1,-7.1 1.8,-2.1 3.9,-3.6 6.5,-4.7 2.6,-1.1 5.5,-1.7 8.7,-1.7 2.2,0 4.3,0.3 6.3,1 2,0.6 3.9,1.6 5.5,2.9 1.6,1.3 3,2.8 4,4.7 1.1,1.9 1.7,4 1.9,6.4 h -8.9 c -0.6,-2.4 -1.6,-4.1 -3.2,-5.3 -1.6,-1.2 -3.5,-1.8 -5.7,-1.8 -2.1,0 -3.9,0.4 -5.3,1.2 -1.5,0.8 -2.6,1.9 -3.5,3.2 -0.9,1.4 -1.6,2.9 -2,4.6 -0.4,1.7 -0.6,3.5 -0.6,5.4 0,1.8 0.2,3.5 0.6,5.2 0.4,1.7 1.1,3.2 2,4.5 0.9,1.3 2.1,2.4 3.5,3.2 1.5,0.8 3.2,1.2 5.3,1.2 3.1,0 5.4,-0.8 7.1,-2.3 1.7,-1.6 2.6,-3.8 2.9,-6.8 H 93 v -6.9 h 17.7 V 154 h -5.9 l -0.9,-4.8 c -1.7,2 -3.5,3.5 -5.5,4.4 z"
   id="path57"
   inkscape:connector-curvature="0"
   style="fill:#ffffff" />
			<path
   class="st0"
   d="m 127.5,111.7 v 16.2 h 17.1 v -16.2 h 9.3 v 42.2 h -9.3 v -18.2 h -17.1 v 18.2 h -9.3 v -42.2 z"
   id="path59"
   inkscape:connector-curvature="0"
   style="fill:#ffffff" />
			<path
   class="st0"
   d="m 158.7,119.5 v -7.8 h 34.5 v 7.8 h -12.6 v 34.4 h -9.3 v -34.4 z"
   id="path61"
   inkscape:connector-curvature="0"
   style="fill:#ffffff" />
		</g>
	</g>
</g>
<g
   id="g77"
   transform="matrix(0.77312794,0,0,0.75152109,29.159524,29.822424)">
	<path
   class="st0"
   d="m 121,167.4 c 0,-3.7 2.7,-4 3.7,-4 2.2,0 3.9,1.3 3.9,3.6 0,2 -1.3,2.9 -2.4,3.7 -1.5,1.1 -2.3,1.6 -2.5,2.1 h 4.9 v 2 h -7.8 c 0.1,-1.3 0.2,-2.7 2.6,-4.5 2,-1.5 2.9,-2.1 2.9,-3.3 0,-0.8 -0.5,-1.6 -1.6,-1.6 -1.6,0 -1.6,1.3 -1.6,2.1 H 121 Z"
   id="path69"
   inkscape:connector-curvature="0"
   style="fill:#ffffff" />
	<path
   class="st0"
   d="m 142.4,163.4 c 2.7,0 3.9,1.8 3.9,5.8 0,4 -1.3,5.8 -3.9,5.8 -2.7,0 -3.9,-1.9 -3.9,-5.8 0,-3.9 1.2,-5.8 3.9,-5.8 z m 0,9.8 c 1.3,0 1.6,-1.1 1.6,-4 0,-2.9 -0.4,-4 -1.6,-4 -1.3,0 -1.6,1.1 -1.6,4 -0.1,2.9 0.3,4 1.6,4 z"
   id="path71"
   inkscape:connector-curvature="0"
   style="fill:#ffffff" />
	<path
   class="st0"
   d="m 156.6,165.3 h 0.3 c 2.2,0 2.7,-1.1 2.8,-2 h 1.8 v 11.4 h -2.2 v -7.8 h -2.7 z"
   id="path73"
   inkscape:connector-curvature="0"
   style="fill:#ffffff" />
	<path
   class="st0"
   d="m 180.6,165.3 c -1.1,1.2 -3.9,4.5 -4.1,9.4 h -2.3 c 0.2,-4.5 3.1,-8.2 4,-9.2 h -5.6 v -2 h 8 z"
   id="path75"
   inkscape:connector-curvature="0"
   style="fill:#ffffff" />
</g>
</svg>